<svg xmlns="http://www.w3.org/2000/svg" viewBox="0 0 16 16"><title>icono_soles_peruanos</title><g id="Capa_10" data-name="Capa 10"><path d="M.89,12.11A6.2,6.2,0,0,0,4,13.05c1.72,0,2.53-.86,2.53-1.94s-.67-1.75-2.43-2.4C1.78,7.88.67,6.59.67,5c0-2.1,1.7-3.82,4.51-3.82a6.51,6.51,0,0,1,3.2.8L7.79,3.73A5.11,5.11,0,0,0,5.12,3c-1.4,0-2.18.81-2.18,1.78S3.72,6.32,5.42,7c2.26.87,3.42,2,3.42,3.94,0,2.29-1.78,3.9-4.88,3.9A7.49,7.49,0,0,1,.3,13.92Z"/><path d="M9.2,14.8,14.43,1.21H15.7L10.45,14.8Z"/></g></svg>